PathFileType	4	(X/Y/Z)	Patient4_TMGait_0pt4_02_left_41.trc.trc
DataRate	CameraRate	NumFrames	NumMarkers	Units	OrigDataRate	OrigDataStartFrame	OrigNumFrames
76.086956521739	76.086956521739	4	33	mm	76.086956521739	1	       141
Frame#	Time	Sacral			L.Shoulder			Chest			R.Shoulder			Neck			R.ASIS			L.ASIS			R.Thigh.Superior			R.Thigh.Lateral			R.Thigh.Inferior			R.Patella			L.Thigh.Superior			L.Thigh.Lateral			L.Thigh.Inferior			L.Patella			L.Shank.Superior			L.Shank.Lateral			L.Shank.Inferior			R.Shank.Superior			R.Shank.Lateral			R.Shank.Inferior			R.Heel			R.Midfoot.Superior			R.Midfoot.Lateral			R.Toe			L.Heel			L.Midfoot.Lateral			L.Midfoot.Superior			L.Toe			L.Elbow			L.Wrist			R.Elbow			R.Wrist			
		X1	Y1	Z1	X2	Y2	Z2	X3	Y3	Z3	X4	Y4	Z4	X5	Y5	Z5	X6	Y6	Z6	X7	Y7	Z7	X8	Y8	Z8	X9	Y9	Z9	X10	Y10	Z10	X11	Y11	Z11	X12	Y12	Z12	X13	Y13	Z13	X14	Y14	Z14	X15	Y15	Z15	X16	Y16	Z16	X17	Y17	Z17	X18	Y18	Z18	X19	Y19	Z19	X20	Y20	Z20	X21	Y21	Z21	X22	Y22	Z22	X23	Y23	Z23	X24	Y24	Z24	X25	Y25	Z25	X26	Y26	Z26	X27	Y27	Z27	X28	Y28	Z28	X29	Y29	Z29	X30	Y30	Z30	X31	Y31	Z31	X32	Y32	Z32	X33	Y33	Z33	

1	54.650000000000	856.587615406771	1002.123073665048	536.604014655939	1012.568277965911	1435.802721591682	347.679630274567	1128.732092565389	1370.279304251018	500.864989028563	1055.875765424821	1437.040062881341	682.283683119227	1002.958878929373	1495.727123848033	507.977737674966	1095.164779170268	942.784718005992	637.785546020197	1061.000408157391	965.861513807042	366.757557277063	1135.418087685150	740.818161613013	604.462765043698	1058.992938314216	631.141389119615	669.933953508230	1130.555499765146	579.494299156272	584.816434226193	1130.138806942731	490.926719462509	590.997634948473	1142.100419785412	773.856092605702	384.837347537717	1086.556841752216	648.605049405440	308.542638840832	1192.916087120086	583.379650411335	360.434644926832	1202.978244330717	495.754138626652	352.309658492654	1138.253370078177	429.167432087955	346.261301335481	997.479334836616	380.879482845211	300.842295143378	993.914595666373	249.498903147978	352.890506246566	1099.791534548747	402.204496160212	601.415326634608	1028.329469290507	301.306067250093	667.693729495815	1062.117462154950	204.901533033263	603.419256699604	921.939197188051	43.035530883714	583.484054913241	1093.736958553958	96.732836481929	610.767154671763	1008.222227297604	36.777665395156	654.848497191587	1215.738339053376	45.464369887419	634.724279652825	809.553979146437	168.420691403689	396.490152493779	866.388143366688	133.485400656730	310.286836905475	971.793797839400	150.471305996142	327.905169816406	1058.097029648619	48.372120274770	287.077360144184	981.033537361424	1083.004454284207	231.679121549805	1112.869555038482	854.080935985356	224.562400133158	1069.357838411872	1090.595739421434	813.657073100591	1238.251303254207	892.397261867339	787.823622589175	
2	54.663142857143	856.664829958134	1002.645102140610	539.030692963240	1011.384391670333	1435.783265097170	348.598409633350	1128.977774689422	1370.375170499359	500.679396181346	1058.126018311737	1437.645966056291	682.690489074307	1003.578076928323	1496.017632434074	508.637377478543	1095.736378604974	942.460665164893	637.695553791840	1059.200574171562	966.787659421350	367.025882838718	1134.128211253703	740.179460851161	603.365100203411	1057.585162052785	631.012448237373	669.813817720099	1127.662378797540	578.875365368338	583.901901303551	1126.671968546504	490.313859900924	590.079122171652	1142.522217158869	777.145409785882	385.843835600867	1089.592670723278	651.140189616912	309.434707799912	1196.419587069009	587.588011020726	362.460868432929	1208.481291215395	500.702030525221	353.924962970312	1146.442749470960	432.871738055503	346.944864525006	1008.312380891170	378.731189857195	301.386574165708	1011.276436676449	247.174323275254	352.116899089986	1095.856350128617	401.653958702964	600.662581706211	1024.431171285102	301.133736925926	667.449381298007	1057.306630488546	204.603657196393	602.958887409785	916.390518091532	43.015347122211	583.508797513962	1088.204102361013	96.731397958365	610.661682435016	1002.646396856751	36.825392658049	654.880741758889	1210.140707756664	45.348152314308	634.638766356512	831.940726281156	157.237585857677	395.546529562643	889.695346794536	125.941379050627	308.836476798595	993.902955427645	147.682240679878	326.284646255652	1084.485251808383	50.623400211921	284.168211636005	974.630126987216	1082.815787522507	235.185240211220	1090.043530049559	847.856289541842	225.264772126590	1080.498019116785	1092.436389148660	814.274045760347	1260.430678295861	908.327567606196	783.047044039693	
3	54.676285714286	856.713729978475	1003.169773999855	541.391347337633	1010.232584586563	1435.745678176698	349.476857652679	1129.240434843179	1370.442742970724	500.453738613111	1060.393602932847	1438.231005621282	683.048875151453	1004.218988229715	1496.286024541758	509.256018147140	1096.284453542258	942.136803454728	637.583847663193	1057.416255582375	967.673365892766	367.278268523495	1132.819840120068	739.537565990234	602.263505146387	1056.181895416668	630.888042162448	669.699797807718	1124.770737422735	578.267140059526	583.004220741798	1123.212426015668	489.704906490877	589.195216802274	1142.877660320799	780.340328422969	386.868477484584	1092.541136740933	653.629038784524	310.303266297086	1199.749153562703	591.689207000382	364.532923189939	1213.813777843534	505.572880644147	355.564969008591	1154.480961391251	436.536648506290	347.660098419617	1019.110072000187	376.531713829880	301.901117592826	1028.600120713127	244.900757105227	351.388452600767	1091.942402647053	401.116354402194	599.948491801585	1020.537440692755	300.960099421951	667.221936894122	1052.517278011581	204.308450505231	602.521142592041	910.872864907554	42.994945513986	583.534934533325	1082.702400902499	96.727152893567	610.556395477466	997.106469131846	36.868525567890	654.914085112673	1204.579746246513	45.234307974140	634.555141064847	854.385557751351	146.148106177602	394.577946275411	913.082949241900	118.484547883665	307.414068579199	1016.016170670669	144.992433108119	324.757721217446	1110.867218021968	53.025252917854	281.463333484216	968.285253390210	1082.646991236156	238.583587556304	1067.416965378378	841.960062894374	226.008352647677	1091.503974732540	1094.283525721702	814.814405201717	1282.207243452285	924.391929242385	778.189654177453	
4	54.689428571429	856.717484337638	1003.697426930569	543.614392460499	1009.157877306534	1435.677494371023	350.264706601497	1129.540459533206	1370.455661245196	500.145922844504	1062.688066694648	1438.774657548334	683.304805147675	1004.905881740556	1496.514120043430	509.784881433730	1096.787112292481	941.814945473554	637.425651268570	1055.675474029916	968.480954321975	367.490748869368	1131.481900840592	738.889611473656	601.168008954129	1054.775173605432	630.770684792878	669.595615174651	1121.883125700001	577.675853308487	582.144242979854	1119.763519053909	489.103805682350	588.378335371740	1143.110003141890	783.344930730776	387.911233887982	1095.306806646679	656.007943392422	311.129371206702	1202.754136115783	595.570250439280	366.658353697952	1218.809530527995	510.278724267866	357.245385282185	1162.207816845848	440.110442722769	348.441108791405	1029.810785546511	374.261217435400	302.359814862170	1045.768799810828	242.749056483968	350.762189388811	1088.062543746114	400.601512599620	599.304398245004	1016.648686007423	300.786561972570	667.025869061364	1047.765780657558	204.020553603610	602.126474886201	905.412537106906	42.976538673646	583.563438273348	1077.260417471490	96.717957620889	610.452975600615	991.632553035872	36.903449309479	654.948906836314	1199.086500999770	45.125796179816	634.475657696264	876.829854363357	135.313511171761	393.573903917087	936.514950191876	111.253424667438	306.067478166785	1038.025338671619	142.524469750375	323.431706924103	1137.097610643129	55.724994284026	279.193771549969	962.041806294588	1082.540242690143	241.760360272065	1045.271562842985	836.710565089309	226.826655177400	1102.242355967975	1096.137378868953	815.176514604128	1303.115586672642	940.681920673430	773.168095383299	
